HIERARCHY
ROOT Hips
{
	OFFSET 0.000000 0.000000 0.000000
	CHANNELS 6 Xposition Yposition Zposition Xrotation Yrotation Zrotation
	JOINT Thigh.L
	{
		OFFSET 0.054921 0.026568 -0.094033
		CHANNELS 3 Xrotation Yrotation Zrotation
		JOINT Shin.L
		{
			OFFSET 0.060888 0.005735 -0.413206
			CHANNELS 3 Xrotation Yrotation Zrotation
			JOINT Foot.L
			{
				OFFSET -0.041993 0.031335 -0.439707
				CHANNELS 3 Xrotation Yrotation Zrotation
				JOINT Toe.L
				{
					OFFSET 0.048267 -0.127314 -0.064793
					CHANNELS 3 Xrotation Yrotation Zrotation
					End Site
					{
						OFFSET 0.000000 0.050000 0.000000
					}
				}
			}
		}
	}
	JOINT Thigh.R
	{
		OFFSET -0.060025 0.020721 -0.106758
		CHANNELS 3 Xrotation Yrotation Zrotation
		JOINT Shin.R
		{
			OFFSET -0.049842 0.013868 -0.394412
			CHANNELS 3 Xrotation Yrotation Zrotation
			JOINT Foot.R
			{
				OFFSET 0.013929 0.019497 -0.448847
				CHANNELS 3 Xrotation Yrotation Zrotation
				JOINT Toe.R
				{
					OFFSET -0.039723 -0.128179 -0.064607
					CHANNELS 3 Xrotation Yrotation Zrotation
					End Site
					{
						OFFSET 0.000000 0.050000 0.000000
					}
				}
			}
		}
	}
	JOINT Spine
	{
		OFFSET -0.002631 0.028449 0.113155
		CHANNELS 3 Xrotation Yrotation Zrotation
		JOINT Spine.2
		{
			OFFSET 0.008964 0.007364 0.139448
			CHANNELS 3 Xrotation Yrotation Zrotation
			JOINT Chest
			{
				OFFSET -0.010750 -0.022451 0.056060
				CHANNELS 3 Xrotation Yrotation Zrotation
				JOINT Neck
				{
					OFFSET -0.012166 0.025834 0.170013
					CHANNELS 3 Xrotation Yrotation Zrotation
					JOINT Head
					{
						OFFSET 0.025412 -0.021189 0.171103
						CHANNELS 3 Xrotation Yrotation Zrotation
						End Site
						{
							OFFSET 0.000000 0.050000 0.000000
						}
					}
				}
				JOINT Clavicle.L
				{
					OFFSET 0.047383 0.004884 0.087402
					CHANNELS 3 Xrotation Yrotation Zrotation
					JOINT UpperArm.L
					{
						OFFSET 0.127888 0.013589 0.057601
						CHANNELS 3 Xrotation Yrotation Zrotation
						JOINT ForeArm.L
						{
							OFFSET 0.271764 0.043223 -0.075902
							CHANNELS 3 Xrotation Yrotation Zrotation
							JOINT Hand.L
							{
								OFFSET 0.276683 0.000639 0.022053
								CHANNELS 3 Xrotation Yrotation Zrotation
								JOINT Thumb1.L
								{
									OFFSET 0.154620 0.000276 0.009534
									CHANNELS 3 Xrotation Yrotation Zrotation
									JOINT Thumb2.L
									{
										OFFSET 0.029905 0.000069 0.002384
										CHANNELS 3 Xrotation Yrotation Zrotation
										End Site
										{
											OFFSET 0.024921 0.000058 0.001986
										}
									}
								}
								JOINT Index1.L
								{
									OFFSET 0.137620 0.000276 0.009534
									CHANNELS 3 Xrotation Yrotation Zrotation
									JOINT Index2.L
									{
										OFFSET 0.029905 0.000069 0.002384
										CHANNELS 3 Xrotation Yrotation Zrotation
										JOINT Index3.L
										{
											OFFSET 0.021930 0.000051 0.001748
											CHANNELS 3 Xrotation Yrotation Zrotation
											End Site
											{
												OFFSET 0.017943 0.000041 0.001430
											}
										}
									}
								}
								JOINT Middle1.L
								{
									OFFSET 0.119620 0.000276 0.009534
									CHANNELS 3 Xrotation Yrotation Zrotation
									JOINT Middle2.L
									{
										OFFSET 0.030902 0.000071 0.002463
										CHANNELS 3 Xrotation Yrotation Zrotation
										JOINT Middle3.L
										{
											OFFSET 0.021930 0.000051 0.001748
											CHANNELS 3 Xrotation Yrotation Zrotation
											End Site
											{
												OFFSET 0.017943 0.000041 0.001430
											}
										}
									}
								}
								JOINT Ring1.L
								{
									OFFSET 0.101620 0.000276 0.009534
									CHANNELS 3 Xrotation Yrotation Zrotation
									JOINT Ring2.L
									{
										OFFSET 0.028908 0.000067 0.002304
										CHANNELS 3 Xrotation Yrotation Zrotation
										JOINT Ring3.L
										{
											OFFSET 0.019937 0.000046 0.001589
											CHANNELS 3 Xrotation Yrotation Zrotation
											End Site
											{
												OFFSET 0.016946 0.000039 0.001351
											}
										}
									}
								}
								JOINT Pinky1.L
								{
									OFFSET 0.085620 0.000276 0.009534
									CHANNELS 3 Xrotation Yrotation Zrotation
									JOINT Pinky2.L
									{
										OFFSET 0.023924 0.000055 0.001907
										CHANNELS 3 Xrotation Yrotation Zrotation
										JOINT Pinky3.L
										{
											OFFSET 0.016946 0.000039 0.001351
											CHANNELS 3 Xrotation Yrotation Zrotation
											End Site
											{
												OFFSET 0.013956 0.000032 0.001112
											}
										}
									}
								}
							}
						}
					}
				}
				JOINT Clavicle.R
				{
					OFFSET -0.048299 0.011007 0.086452
					CHANNELS 3 Xrotation Yrotation Zrotation
					JOINT UpperArm.R
					{
						OFFSET -0.110996 0.009795 0.053967
						CHANNELS 3 Xrotation Yrotation Zrotation
						JOINT ForeArm.R
						{
							OFFSET -0.290289 0.028085 -0.040348
							CHANNELS 3 Xrotation Yrotation Zrotation
							JOINT Hand.R
							{
								OFFSET -0.272837 0.014284 -0.005656
								CHANNELS 3 Xrotation Yrotation Zrotation
								JOINT Thumb1.R
								{
									OFFSET -0.154810 0.006273 -0.002484
									CHANNELS 3 Xrotation Yrotation Zrotation
									JOINT Thumb2.R
									{
										OFFSET -0.029953 0.001568 -0.000621
										CHANNELS 3 Xrotation Yrotation Zrotation
										End Site
										{
											OFFSET -0.024960 0.001307 -0.000517
										}
									}
								}
								JOINT Index1.R
								{
									OFFSET -0.137810 0.006273 -0.002484
									CHANNELS 3 Xrotation Yrotation Zrotation
									JOINT Index2.R
									{
										OFFSET -0.029953 0.001568 -0.000621
										CHANNELS 3 Xrotation Yrotation Zrotation
										JOINT Index3.R
										{
											OFFSET -0.021965 0.001150 -0.000455
											CHANNELS 3 Xrotation Yrotation Zrotation
											End Site
											{
												OFFSET -0.017972 0.000941 -0.000373
											}
										}
									}
								}
								JOINT Middle1.R
								{
									OFFSET -0.119810 0.006273 -0.002484
									CHANNELS 3 Xrotation Yrotation Zrotation
									JOINT Middle2.R
									{
										OFFSET -0.030951 0.001620 -0.000642
										CHANNELS 3 Xrotation Yrotation Zrotation
										JOINT Middle3.R
										{
											OFFSET -0.021965 0.001150 -0.000455
											CHANNELS 3 Xrotation Yrotation Zrotation
											End Site
											{
												OFFSET -0.017972 0.000941 -0.000373
											}
										}
									}
								}
								JOINT Ring1.R
								{
									OFFSET -0.101810 0.006273 -0.002484
									CHANNELS 3 Xrotation Yrotation Zrotation
									JOINT Ring2.R
									{
										OFFSET -0.028954 0.001516 -0.000600
										CHANNELS 3 Xrotation Yrotation Zrotation
										JOINT Ring3.R
										{
											OFFSET -0.019968 0.001045 -0.000414
											CHANNELS 3 Xrotation Yrotation Zrotation
											End Site
											{
												OFFSET -0.016973 0.000889 -0.000352
											}
										}
									}
								}
								JOINT Pinky1.R
								{
									OFFSET -0.085810 0.006273 -0.002484
									CHANNELS 3 Xrotation Yrotation Zrotation
									JOINT Pinky2.R
									{
										OFFSET -0.023962 0.001255 -0.000497
										CHANNELS 3 Xrotation Yrotation Zrotation
										JOINT Pinky3.R
										{
											OFFSET -0.016973 0.000889 -0.000352
											CHANNELS 3 Xrotation Yrotation Zrotation
											End Site
											{
												OFFSET -0.013978 0.000732 -0.000290
											}
										}
									}
								}
							}
						}
					}
				}
			}
		}
	}
}
MOTION
Frames: 8
Frame Time: 0.04166667
0.013051 -0.066672 1.118000 -8.479776 -1.530369 2.759404 1.907887 -4.234430 1.775905 16.703894 3.130874 -8.845209 -9.418217 -1.515626 10.981653 -0.738049 -1.878275 -0.684987 -1.681006 5.231287 -3.512143 24.211322 -0.019701 2.076349 -11.944483 -2.328157 -9.161130 0.096700 -1.112392 0.365101 9.520847 1.628621 1.932153 -4.710218 1.633394 -1.132090 7.765553 -0.903058 -0.269198 3.950049 1.159316 1.019558 1.205726 -3.605012 0.133170 -0.543566 13.548332 -3.414408 25.930273 49.381891 -28.085759 15.267476 3.124534 -24.670276 -18.482188 -5.862943 -10.326398 0.000000 0.000000 0.000000 0.000000 0.000000 0.000000 0.000000 0.000000 0.000000 0.000000 0.000000 0.000000 0.000000 0.000000 0.000000 0.000000 0.000000 0.000000 0.000000 0.000000 0.000000 0.000000 0.000000 0.000000 0.000000 0.000000 0.000000 0.000000 0.000000 0.000000 0.000000 0.000000 0.000000 0.000000 0.000000 0.000000 0.000000 0.000000 0.000000 0.000000 0.000000 0.000000 -0.775794 -12.719312 8.528090 32.439415 -52.453835 31.432470 9.514566 -0.448714 27.878245 -12.405846 5.557839 6.773667 0.000000 0.000000 0.000000 0.000000 0.000000 0.000000 0.000000 0.000000 0.000000 0.000000 0.000000 0.000000 0.000000 0.000000 0.000000 0.000000 0.000000 0.000000 0.000000 0.000000 0.000000 0.000000 0.000000 0.000000 0.000000 0.000000 0.000000 0.000000 0.000000 0.000000 0.000000 0.000000 0.000000 0.000000 0.000000 0.000000 0.000000 0.000000 0.000000 0.000000 0.000000 0.000000
0.012100 -0.068683 1.119788 -8.570842 -1.434782 2.577718 1.895433 -4.286380 1.808569 16.762315 3.087298 -8.676755 -9.029491 -1.095725 10.973436 -0.680364 -1.857966 -0.701245 -1.848437 5.193531 -3.423580 24.399595 -0.017504 2.090361 -11.275384 -2.716980 -9.051061 0.114317 -1.124001 0.348238 9.604847 1.565083 1.894134 -4.829554 1.660297 -1.065069 7.821151 -0.979815 -0.250957 4.070911 1.273220 0.994172 1.275250 -3.604325 0.233401 -0.557010 13.407237 -3.584108 26.106703 49.604694 -28.375359 15.472336 3.167741 -24.284229 -18.615732 -5.981775 -10.406020 0.000000 0.000000 0.000000 0.000000 0.000000 0.000000 0.000000 0.000000 0.000000 0.000000 0.000000 0.000000 0.000000 0.000000 0.000000 0.000000 0.000000 0.000000 0.000000 0.000000 0.000000 0.000000 0.000000 0.000000 0.000000 0.000000 0.000000 0.000000 0.000000 0.000000 0.000000 0.000000 0.000000 0.000000 0.000000 0.000000 0.000000 0.000000 0.000000 0.000000 0.000000 0.000000 -0.754747 -12.542172 8.702720 32.515594 -52.530490 31.651548 9.645258 -0.430474 27.636210 -12.728892 5.705251 6.892562 0.000000 0.000000 0.000000 0.000000 0.000000 0.000000 0.000000 0.000000 0.000000 0.000000 0.000000 0.000000 0.000000 0.000000 0.000000 0.000000 0.000000 0.000000 0.000000 0.000000 0.000000 0.000000 0.000000 0.000000 0.000000 0.000000 0.000000 0.000000 0.000000 0.000000 0.000000 0.000000 0.000000 0.000000 0.000000 0.000000 0.000000 0.000000 0.000000 0.000000 0.000000 0.000000
0.011492 -0.068435 1.120599 -8.534972 -1.342632 2.432171 1.811874 -4.344922 1.758599 16.871140 3.047363 -8.519428 -8.857131 -0.877822 10.994656 -0.654667 -1.841511 -0.699013 -2.042767 5.162433 -3.358716 24.598054 -0.068635 2.083022 -10.919290 -2.920249 -8.924562 0.111447 -1.130919 0.326562 9.634752 1.475839 1.871347 -4.953785 1.685862 -1.034871 7.853824 -1.037152 -0.250431 4.113276 1.373958 0.907619 1.345363 -3.660852 0.297751 -0.452609 13.339852 -3.760993 26.211908 49.749942 -28.465251 15.396477 3.227525 -24.099608 -18.968607 -6.064875 -10.410663 0.000000 0.000000 0.000000 0.000000 0.000000 0.000000 0.000000 0.000000 0.000000 0.000000 0.000000 0.000000 0.000000 0.000000 0.000000 0.000000 0.000000 0.000000 0.000000 0.000000 0.000000 0.000000 0.000000 0.000000 0.000000 0.000000 0.000000 0.000000 0.000000 0.000000 0.000000 0.000000 0.000000 0.000000 0.000000 0.000000 0.000000 0.000000 0.000000 0.000000 0.000000 0.000000 -0.662955 -12.398255 8.882418 32.570920 -52.682891 31.721437 9.543136 -0.452830 27.551130 -13.106896 5.699747 6.863890 0.000000 0.000000 0.000000 0.000000 0.000000 0.000000 0.000000 0.000000 0.000000 0.000000 0.000000 0.000000 0.000000 0.000000 0.000000 0.000000 0.000000 0.000000 0.000000 0.000000 0.000000 0.000000 0.000000 0.000000 0.000000 0.000000 0.000000 0.000000 0.000000 0.000000 0.000000 0.000000 0.000000 0.000000 0.000000 0.000000 0.000000 0.000000 0.000000 0.000000 0.000000 0.000000
0.010866 -0.066437 1.119915 -8.386283 -1.262361 2.327643 1.529177 -4.383642 1.632986 17.254086 3.024534 -8.447296 -9.032603 -0.959599 11.085472 -0.641462 -1.815280 -0.690077 -2.415810 5.160624 -3.283809 25.063752 -0.145288 2.087219 -10.969393 -2.909808 -8.845992 0.108463 -1.141327 0.307212 9.785415 1.400949 1.848828 -5.104744 1.702619 -1.012776 7.908366 -1.088743 -0.246216 4.129747 1.470962 0.862395 1.359408 -3.712201 0.389345 -0.346410 13.306644 -3.871625 26.222997 49.835953 -28.437556 15.264803 3.249711 -24.209065 -19.144395 -6.153836 -10.369554 0.000000 0.000000 0.000000 0.000000 0.000000 0.000000 0.000000 0.000000 0.000000 0.000000 0.000000 0.000000 0.000000 0.000000 0.000000 0.000000 0.000000 0.000000 0.000000 0.000000 0.000000 0.000000 0.000000 0.000000 0.000000 0.000000 0.000000 0.000000 0.000000 0.000000 0.000000 0.000000 0.000000 0.000000 0.000000 0.000000 0.000000 0.000000 0.000000 0.000000 0.000000 0.000000 -0.595551 -12.250912 8.966833 32.563846 -52.831287 31.704447 9.416757 -0.487445 27.624962 -13.320533 5.645158 6.773320 0.000000 0.000000 0.000000 0.000000 0.000000 0.000000 0.000000 0.000000 0.000000 0.000000 0.000000 0.000000 0.000000 0.000000 0.000000 0.000000 0.000000 0.000000 0.000000 0.000000 0.000000 0.000000 0.000000 0.000000 0.000000 0.000000 0.000000 0.000000 0.000000 0.000000 0.000000 0.000000 0.000000 0.000000 0.000000 0.000000 0.000000 0.000000 0.000000 0.000000 0.000000 0.000000
0.010375 -0.065705 1.117545 -8.219764 -1.189230 2.192255 0.867017 -4.415441 1.413581 18.183503 3.036431 -8.480249 -9.566998 -1.368311 11.262860 -0.644578 -1.806535 -0.672974 -3.163491 5.187628 -3.103698 26.037821 -0.270427 2.141776 -11.419365 -2.674287 -8.840932 0.103277 -1.151287 0.294667 10.125360 1.326916 1.825011 -5.209391 1.670111 -1.005052 7.973697 -1.123444 -0.241670 4.050355 1.555355 0.877581 1.266635 -3.717301 0.432064 -0.329464 13.280290 -4.029509 26.190392 49.849606 -28.447045 15.131418 3.168594 -24.550647 -19.068144 -6.298096 -10.245060 0.000000 0.000000 0.000000 0.000000 0.000000 0.000000 0.000000 0.000000 0.000000 0.000000 0.000000 0.000000 0.000000 0.000000 0.000000 0.000000 0.000000 0.000000 0.000000 0.000000 0.000000 0.000000 0.000000 0.000000 0.000000 0.000000 0.000000 0.000000 0.000000 0.000000 0.000000 0.000000 0.000000 0.000000 0.000000 0.000000 0.000000 0.000000 0.000000 0.000000 0.000000 0.000000 -0.634493 -12.130939 9.042721 32.458145 -52.852359 31.635536 9.391587 -0.424586 27.956342 -13.386191 5.626811 6.654265 0.000000 0.000000 0.000000 0.000000 0.000000 0.000000 0.000000 0.000000 0.000000 0.000000 0.000000 0.000000 0.000000 0.000000 0.000000 0.000000 0.000000 0.000000 0.000000 0.000000 0.000000 0.000000 0.000000 0.000000 0.000000 0.000000 0.000000 0.000000 0.000000 0.000000 0.000000 0.000000 0.000000 0.000000 0.000000 0.000000 0.000000 0.000000 0.000000 0.000000 0.000000 0.000000
0.010003 -0.068721 1.113749 -8.249148 -1.137012 2.032931 -0.102111 -4.443176 1.152223 19.825718 3.132681 -8.608809 -10.386514 -2.072934 11.537389 -0.646708 -1.824439 -0.678701 -4.143708 5.228545 -2.834708 27.558745 -0.406124 2.283233 -12.191650 -2.186006 -8.945228 0.052178 -1.159938 0.290278 10.681029 1.331339 1.814584 -5.202201 1.540553 -1.051544 7.968835 -1.088559 -0.245632 3.892509 1.605832 0.999476 1.162157 -3.667656 0.457998 -0.338965 13.367505 -4.288482 26.075033 49.683432 -28.425945 14.923026 3.012606 -24.992166 -19.064893 -6.469716 -10.111818 0.000000 0.000000 0.000000 0.000000 0.000000 0.000000 0.000000 0.000000 0.000000 0.000000 0.000000 0.000000 0.000000 0.000000 0.000000 0.000000 0.000000 0.000000 0.000000 0.000000 0.000000 0.000000 0.000000 0.000000 0.000000 0.000000 0.000000 0.000000 0.000000 0.000000 0.000000 0.000000 0.000000 0.000000 0.000000 0.000000 0.000000 0.000000 0.000000 0.000000 0.000000 0.000000 -0.695182 -12.207196 9.195606 32.203655 -52.703258 31.440660 9.314657 -0.225904 28.325296 -13.339301 5.610598 6.565944 0.000000 0.000000 0.000000 0.000000 0.000000 0.000000 0.000000 0.000000 0.000000 0.000000 0.000000 0.000000 0.000000 0.000000 0.000000 0.000000 0.000000 0.000000 0.000000 0.000000 0.000000 0.000000 0.000000 0.000000 0.000000 0.000000 0.000000 0.000000 0.000000 0.000000 0.000000 0.000000 0.000000 0.000000 0.000000 0.000000 0.000000 0.000000 0.000000 0.000000 0.000000 0.000000
0.009615 -0.079391 1.109303 -8.594130 -1.112979 1.795384 -1.383962 -4.500926 0.927619 22.088992 3.344784 -8.776487 -11.307951 -2.763227 11.698398 -0.649471 -1.905122 -0.704368 -5.464237 5.343852 -2.439491 29.640519 -0.623776 2.446774 -12.967517 -1.621764 -9.083880 -0.039475 -1.190476 0.291983 11.468801 1.354174 1.813923 -4.975392 1.299766 -1.136335 7.804316 -0.975154 -0.246221 3.674226 1.629827 1.279962 0.978736 -3.447098 0.391258 -0.380887 13.650162 -4.670467 25.889564 49.280309 -28.347475 14.815186 2.664814 -25.445550 -18.753196 -6.586839 -9.924138 0.000000 0.000000 0.000000 0.000000 0.000000 0.000000 0.000000 0.000000 0.000000 0.000000 0.000000 0.000000 0.000000 0.000000 0.000000 0.000000 0.000000 0.000000 0.000000 0.000000 0.000000 0.000000 0.000000 0.000000 0.000000 0.000000 0.000000 0.000000 0.000000 0.000000 0.000000 0.000000 0.000000 0.000000 0.000000 0.000000 0.000000 0.000000 0.000000 0.000000 0.000000 0.000000 -0.752202 -12.668083 9.429238 31.612808 -52.160445 30.912264 9.352683 0.181029 28.810112 -13.033616 5.600532 6.538776 0.000000 0.000000 0.000000 0.000000 0.000000 0.000000 0.000000 0.000000 0.000000 0.000000 0.000000 0.000000 0.000000 0.000000 0.000000 0.000000 0.000000 0.000000 0.000000 0.000000 0.000000 0.000000 0.000000 0.000000 0.000000 0.000000 0.000000 0.000000 0.000000 0.000000 0.000000 0.000000 0.000000 0.000000 0.000000 0.000000 0.000000 0.000000 0.000000 0.000000 0.000000 0.000000
0.011480 -0.096815 1.105478 -9.306561 -1.136670 1.574663 -2.984017 -4.665907 0.745691 25.184782 3.532965 -8.959146 -12.029190 -3.120450 11.720999 -0.731566 -2.047697 -0.726647 -6.998923 5.434358 -2.103810 32.326359 -0.923721 2.518620 -13.630073 -1.174617 -9.153322 -0.178702 -1.169190 0.296837 12.432348 1.353038 1.895556 -4.493971 0.997063 -1.211552 7.518291 -0.781189 -0.221599 3.451516 1.473342 1.685580 0.728160 -3.196261 0.235715 -0.542412 13.915381 -5.105736 25.958562 48.742662 -28.608334 14.812111 2.144690 -25.662564 -18.011373 -6.890795 -9.879175 0.000000 0.000000 0.000000 0.000000 0.000000 0.000000 0.000000 0.000000 0.000000 0.000000 0.000000 0.000000 0.000000 0.000000 0.000000 0.000000 0.000000 0.000000 0.000000 0.000000 0.000000 0.000000 0.000000 0.000000 0.000000 0.000000 0.000000 0.000000 0.000000 0.000000 0.000000 0.000000 0.000000 0.000000 0.000000 0.000000 0.000000 0.000000 0.000000 0.000000 0.000000 0.000000 -0.832175 -13.326165 9.740580 30.881328 -51.420051 30.342109 9.369027 0.607301 29.194215 -12.582611 5.765704 6.775125 0.000000 0.000000 0.000000 0.000000 0.000000 0.000000 0.000000 0.000000 0.000000 0.000000 0.000000 0.000000 0.000000 0.000000 0.000000 0.000000 0.000000 0.000000 0.000000 0.000000 0.000000 0.000000 0.000000 0.000000 0.000000 0.000000 0.000000 0.000000 0.000000 0.000000 0.000000 0.000000 0.000000 0.000000 0.000000 0.000000 0.000000 0.000000 0.000000 0.000000 0.000000 0.000000
